<svg width="136" height="28" viewBox="0 0 136 28" fill="none" xmlns="http://www.w3.org/2000/svg">
<path fill-rule="evenodd" clip-rule="evenodd" d="M2.94851 27.4308H8.63653V13.8725H12.4318L12.9344 9.20092H8.63653L8.64368 6.86257C8.64368 5.64409 8.76072 4.99099 10.5358 4.99099H12.9084V0.318115H9.11248C4.55322 0.318115 2.94916 2.58412 2.94916 6.39579V9.20156H0.106445V13.8732H2.94851V27.4308ZM53.9392 13.1451C52.0074 13.1451 51.5666 14.1894 51.5666 15.4828V16.2096H56.3092V15.4828C56.3092 14.1894 55.8684 13.1451 53.9392 13.1451ZM72.4296 13.6164C71.2697 13.6164 70.4335 13.9909 69.5856 14.3725V23.0076C70.3978 23.0838 70.8633 23.0838 71.6338 23.0838C74.418 23.0838 74.7997 21.8281 74.7997 20.075V15.9509C74.7997 14.6562 74.3634 13.6164 72.4296 13.6164ZM19.6915 23.6875C18.6095 23.6875 18.1192 23.156 18.1192 22.1328C18.1192 21.1039 18.6472 20.8836 19.8488 20.8836H22.3866V22.9319C22.3046 22.969 22.2241 23.0059 22.1446 23.0424C21.4019 23.3834 20.7398 23.6875 19.6915 23.6875ZM90.4162 13.6164C88.4812 13.6164 87.8108 14.6562 87.8108 15.9509V20.6756C87.8108 21.9735 88.4812 23.0165 90.4162 23.0165C92.346 23.0165 93.0216 21.9735 93.0216 20.6756V15.9509C93.0209 14.6562 92.3454 13.6164 90.4162 13.6164ZM28.0754 27.4659H23.3348L23.1299 26.2851C20.9654 27.4659 19.0336 27.6573 17.7592 27.6573C14.2826 27.6573 12.4321 25.3702 12.4321 22.2071C12.4321 18.4755 14.5914 17.1437 18.4543 17.1437H22.3861V16.3369C22.3861 14.432 22.1644 13.873 19.1897 13.873H14.3261L14.8014 9.20144H20.1175C26.6443 9.20144 28.0754 11.2318 28.0754 16.3747V27.4659ZM38.9794 13.608C40.3988 13.608 41.2461 13.7175 44.1961 14.2156V9.66121C41.6121 9.08815 39.9287 8.93768 38.5061 8.93768C32.3993 8.93768 29.9721 12.1059 29.9721 16.6782V19.9507C29.9721 24.5193 32.3993 27.6817 38.5061 27.6817C39.9287 27.6817 41.6121 27.5318 44.1961 26.9613V22.4044C41.2461 22.9044 40.3988 23.0158 38.9794 23.0158C36.43 23.0158 35.6595 22.4594 35.6595 20.3272V16.294C35.6595 14.1618 36.43 13.608 38.9794 13.608ZM61.9963 19.9507H51.5657V20.3272C51.5657 22.4594 52.3368 23.0158 54.8856 23.0158C57.177 23.0158 58.5756 22.9044 61.5204 22.4044V26.9613C58.6802 27.5318 57.2004 27.6817 54.4142 27.6817C48.3068 27.6817 45.8783 24.5193 45.8783 19.9507V16.2089C45.8783 12.2115 47.68 8.93768 53.9383 8.93768C60.1965 8.93768 61.9963 12.1737 61.9963 16.2089V19.9507ZM71.4414 27.6734C79.2049 27.6734 80.4865 24.4527 80.4865 20.0372H80.4858V15.4834C80.4858 11.4489 79.5385 8.93835 73.8518 8.93835C72.4044 8.93835 70.814 9.16693 69.5851 9.61642V0.787395L63.899 1.72159V26.962C66.9934 27.4307 68.6377 27.6734 71.4414 27.6734ZM98.7137 20.1332C98.7137 23.9424 97.1168 27.6369 90.4352 27.6369C83.7505 27.6369 82.1236 23.9424 82.1236 20.1332V16.4554C82.1236 12.6444 83.7505 8.94921 90.4352 8.94921C97.1168 8.94921 98.7137 12.6444 98.7137 16.4554V20.1332ZM108.649 27.6369C115.33 27.6369 116.928 23.9424 116.928 20.1332V16.4554C116.928 12.6444 115.33 8.94921 108.649 8.94921C101.965 8.94921 100.338 12.6444 100.338 16.4554V20.1332C100.338 23.9424 101.965 27.6369 108.649 27.6369ZM135.621 27.4306H129.458L124.245 18.8616V27.4306H118.557V1.72089L124.245 0.786705V17.3377L129.458 9.20146H135.621L129.931 18.0804L135.621 27.4306ZM106.028 15.9509C106.028 14.6562 106.698 13.6164 108.63 13.6164C110.559 13.6164 111.242 14.6562 111.242 15.9509V20.6756C111.242 21.9735 110.559 23.0165 108.63 23.0165C106.698 23.0165 106.028 21.9735 106.028 20.6756V15.9509Z" fill="#C3CDDD"/>
</svg>
