<svg width="378" height="48" viewBox="0 0 378 48" fill="none" xmlns="http://www.w3.org/2000/svg">
<rect width="378" height="48" rx="8" fill="#006AFF"/>
<path d="M23.172 18.024V22.68H17.364V18.024H15.956V29H17.364V23.944H23.172V29H24.58V18.024H23.172ZM28.9273 18.6C28.9273 18.056 28.4953 17.64 27.9513 17.64C27.4073 17.64 26.9753 18.056 26.9753 18.6C26.9753 19.16 27.4073 19.56 27.9513 19.56C28.4953 19.56 28.9273 19.16 28.9273 18.6ZM27.1993 29H28.6233V21.16H27.1993V29ZM30.6129 30.52V31.32C31.5569 31.368 32.7089 30.264 32.7089 28.712C32.7089 27.656 32.1649 27.304 31.6209 27.304C31.0449 27.304 30.6129 27.688 30.6129 28.296C30.6129 28.856 30.9809 29.272 31.5889 29.272C31.7009 29.272 31.7649 29.256 31.7969 29.256C31.7969 29.896 31.1889 30.52 30.6129 30.52ZM40.0835 18.6C40.0835 18.056 39.6515 17.64 39.1075 17.64C38.5635 17.64 38.1315 18.056 38.1315 18.6C38.1315 19.16 38.5635 19.56 39.1075 19.56C39.6515 19.56 40.0835 19.16 40.0835 18.6ZM38.3555 29H39.7795V21.16H38.3555V29ZM43.1771 23.288C43.1771 22.664 43.6891 22.28 44.7611 22.28C45.7531 22.28 46.3451 22.68 46.4091 23.448L47.7211 23.464C47.6571 21.944 46.6811 21.08 44.7931 21.08C42.8891 21.08 41.7851 21.992 41.7851 23.288C41.7851 26.344 46.4411 25.048 46.4411 26.872C46.4411 27.464 45.9291 27.88 44.7131 27.88C43.4331 27.88 42.9531 27.464 42.8731 26.712L41.5771 26.696C41.6091 28.216 42.5371 29.08 44.6971 29.08C46.7131 29.08 47.8331 28.168 47.8331 26.872C47.8331 23.72 43.1771 25.08 43.1771 23.288ZM57.8035 27.656C57.4675 27.8 57.1315 27.848 56.7795 27.848C55.4995 27.848 55.1315 27.208 55.1315 26.424V22.344H57.6755V21.16H55.1315V18.824H53.8035V21.16H52.5395V22.376H53.7235V26.424C53.7235 28.056 54.8115 29.08 56.6355 29.08C57.1315 29.08 57.6115 29 57.8675 28.888L57.8035 27.656ZM63.197 21.08C61.997 21.08 61.181 21.592 60.685 22.312V17.64H59.293V29H60.717V24.44C60.717 23.096 61.565 22.28 62.845 22.28C63.965 22.28 64.605 23 64.605 24.2V29H66.029V23.896C66.029 22.2 64.941 21.08 63.197 21.08ZM70.0054 18.6C70.0054 18.056 69.5734 17.64 69.0294 17.64C68.4854 17.64 68.0534 18.056 68.0534 18.6C68.0534 19.16 68.4854 19.56 69.0294 19.56C69.5734 19.56 70.0054 19.16 70.0054 18.6ZM68.2774 29H69.7014V21.16H68.2774V29ZM73.099 23.288C73.099 22.664 73.611 22.28 74.683 22.28C75.675 22.28 76.267 22.68 76.331 23.448L77.643 23.464C77.579 21.944 76.603 21.08 74.715 21.08C72.811 21.08 71.707 21.992 71.707 23.288C71.707 26.344 76.363 25.048 76.363 26.872C76.363 27.464 75.851 27.88 74.635 27.88C73.355 27.88 72.875 27.464 72.795 26.712L71.499 26.696C71.531 28.216 72.459 29.08 74.619 29.08C76.635 29.08 77.755 28.168 77.755 26.872C77.755 23.72 73.099 25.08 73.099 23.288ZM87.3574 21.08C86.0774 21.08 85.1814 21.672 84.6854 22.472L84.6534 21.16H83.2774V32.2H84.6854V27.8C85.1494 28.552 85.9814 29.08 87.2614 29.08C89.4534 29.08 90.9254 27.4 90.9254 24.984C90.9254 22.6 89.4854 21.08 87.3574 21.08ZM87.1654 27.88C85.4534 27.88 84.6854 26.424 84.6854 25.24V24.888C84.6854 23.736 85.4854 22.28 87.1974 22.28C88.6054 22.28 89.4854 23.352 89.4854 25.016C89.4854 26.712 88.5734 27.88 87.1654 27.88ZM94.521 18.6C94.521 18.056 94.089 17.64 93.545 17.64C93.001 17.64 92.569 18.056 92.569 18.6C92.569 19.16 93.001 19.56 93.545 19.56C94.089 19.56 94.521 19.16 94.521 18.6ZM92.793 29H94.217V21.16H92.793V29ZM99.7426 29.08C101.823 29.08 103.039 27.928 103.279 26.184H101.775C101.615 27.112 101.023 27.88 99.8066 27.88C98.3506 27.88 97.5186 26.76 97.5186 25.08C97.5186 23.384 98.4306 22.28 99.8386 22.28C101.023 22.28 101.615 23.048 101.775 24.024H103.279C103.071 22.232 101.871 21.08 99.8226 21.08C97.5986 21.08 96.0786 22.76 96.0786 25.112C96.0786 27.416 97.3586 29.08 99.7426 29.08ZM110.259 29H111.907L108.531 24.52L111.603 21.16H109.827L106.451 24.888V17.64H105.043V29H106.451V26.776L107.619 25.496L110.259 29ZM118.147 21.16V25.72C118.147 27.08 117.299 27.88 116.163 27.88C115.027 27.88 114.403 27.224 114.403 26.072V21.16H112.979V26.28C112.979 27.992 114.035 29.08 115.747 29.08C116.867 29.08 117.683 28.568 118.163 27.848L118.227 29H119.555V21.16H118.147ZM125.967 21.08C124.687 21.08 123.791 21.672 123.295 22.472L123.263 21.16H121.887V32.2H123.295V27.8C123.759 28.552 124.591 29.08 125.871 29.08C128.063 29.08 129.535 27.4 129.535 24.984C129.535 22.6 128.095 21.08 125.967 21.08ZM125.775 27.88C124.063 27.88 123.295 26.424 123.295 25.24V24.888C123.295 23.736 124.095 22.28 125.807 22.28C127.215 22.28 128.095 23.352 128.095 25.016C128.095 26.712 127.183 27.88 125.775 27.88ZM137.298 27.72C137.138 27.784 137.058 27.8 136.93 27.8C136.658 27.8 136.45 27.608 136.45 27.272V17.64H135.042V27.544C135.042 28.456 135.602 29.08 136.514 29.08C136.85 29.08 137.138 29.032 137.41 28.952L137.298 27.72ZM142.404 21.08C140.084 21.08 138.532 22.776 138.532 25.16C138.532 27.528 140.084 29.08 142.404 29.08C144.756 29.08 146.292 27.432 146.292 25.064C146.292 22.68 144.756 21.08 142.404 21.08ZM142.404 22.28C143.892 22.28 144.852 23.448 144.852 25.112C144.852 26.76 143.892 27.88 142.404 27.88C140.948 27.88 139.972 26.76 139.972 25.112C139.972 23.448 140.948 22.28 142.404 22.28ZM151.336 29.08C153.416 29.08 154.632 27.928 154.872 26.184H153.368C153.208 27.112 152.616 27.88 151.4 27.88C149.944 27.88 149.112 26.76 149.112 25.08C149.112 23.384 150.024 22.28 151.432 22.28C152.616 22.28 153.208 23.048 153.368 24.024H154.872C154.664 22.232 153.464 21.08 151.416 21.08C149.192 21.08 147.672 22.76 147.672 25.112C147.672 27.416 148.952 29.08 151.336 29.08ZM163.757 27.72C163.597 27.784 163.501 27.8 163.357 27.8C163.101 27.8 162.909 27.608 162.909 27.272V24.072C162.909 22.184 161.725 21.08 159.661 21.08C157.741 21.08 156.413 22.056 156.285 23.752H157.661C157.757 22.808 158.445 22.28 159.565 22.28C160.829 22.28 161.501 22.952 161.501 24.04V24.552H159.853C157.677 24.552 156.109 25.256 156.109 26.952C156.109 28.2 156.989 29.08 158.765 29.08C160.509 29.08 161.229 28.248 161.517 27.8C161.613 28.568 162.157 29.08 162.973 29.08C163.309 29.08 163.597 29.032 163.869 28.952L163.757 27.72ZM159.053 27.944C157.997 27.944 157.549 27.544 157.549 26.888C157.549 26.024 158.301 25.576 159.773 25.576H161.501V26.12C161.501 26.84 160.637 27.944 159.053 27.944ZM169.679 27.656C169.343 27.8 169.007 27.848 168.655 27.848C167.375 27.848 167.007 27.208 167.007 26.424V22.344H169.551V21.16H167.007V18.824H165.679V21.16H164.415V22.376H165.599V26.424C165.599 28.056 166.687 29.08 168.511 29.08C169.007 29.08 169.487 29 169.743 28.888L169.679 27.656ZM172.896 18.6C172.896 18.056 172.464 17.64 171.92 17.64C171.376 17.64 170.944 18.056 170.944 18.6C170.944 19.16 171.376 19.56 171.92 19.56C172.464 19.56 172.896 19.16 172.896 18.6ZM171.168 29H172.592V21.16H171.168V29ZM178.326 21.08C176.006 21.08 174.454 22.776 174.454 25.16C174.454 27.528 176.006 29.08 178.326 29.08C180.678 29.08 182.214 27.432 182.214 25.064C182.214 22.68 180.678 21.08 178.326 21.08ZM178.326 22.28C179.814 22.28 180.774 23.448 180.774 25.112C180.774 26.76 179.814 27.88 178.326 27.88C176.87 27.88 175.894 26.76 175.894 25.112C175.894 23.448 176.87 22.28 178.326 22.28ZM187.978 21.08C186.794 21.08 185.962 21.608 185.466 22.328L185.402 21.16H184.074V29H185.482V24.44C185.482 23.112 186.33 22.28 187.594 22.28C188.762 22.28 189.386 23.016 189.386 24.344V29H190.81V24.056C190.81 22.136 189.706 21.08 187.978 21.08ZM197.802 23.288C197.802 22.664 198.314 22.28 199.386 22.28C200.378 22.28 200.97 22.68 201.034 23.448L202.346 23.464C202.282 21.944 201.306 21.08 199.418 21.08C197.514 21.08 196.41 21.992 196.41 23.288C196.41 26.344 201.066 25.048 201.066 26.872C201.066 27.464 200.554 27.88 199.338 27.88C198.058 27.88 197.578 27.464 197.498 26.712L196.202 26.696C196.234 28.216 197.162 29.08 199.322 29.08C201.338 29.08 202.458 28.168 202.458 26.872C202.458 23.72 197.802 25.08 197.802 23.288ZM208.647 27.656C208.311 27.8 207.975 27.848 207.623 27.848C206.343 27.848 205.975 27.208 205.975 26.424V22.344H208.519V21.16H205.975V18.824H204.647V21.16H203.383V22.376H204.567V26.424C204.567 28.056 205.655 29.08 207.479 29.08C207.975 29.08 208.455 29 208.711 28.888L208.647 27.656ZM211.865 18.6C211.865 18.056 211.433 17.64 210.889 17.64C210.345 17.64 209.913 18.056 209.913 18.6C209.913 19.16 210.345 19.56 210.889 19.56C211.433 19.56 211.865 19.16 211.865 18.6ZM210.137 29H211.561V21.16H210.137V29ZM216.11 27.72C215.95 27.784 215.87 27.8 215.742 27.8C215.47 27.8 215.262 27.608 215.262 27.272V17.64H213.854V27.544C213.854 28.456 214.414 29.08 215.326 29.08C215.662 29.08 215.95 29.032 216.222 28.952L216.11 27.72ZM220.11 27.72C219.95 27.784 219.87 27.8 219.742 27.8C219.47 27.8 219.262 27.608 219.262 27.272V17.64H217.854V27.544C217.854 28.456 218.414 29.08 219.326 29.08C219.662 29.08 219.95 29.032 220.222 28.952L220.11 27.72ZM228.982 21.08C226.662 21.08 225.11 22.776 225.11 25.16C225.11 27.528 226.662 29.08 228.982 29.08C231.334 29.08 232.87 27.432 232.87 25.064C232.87 22.68 231.334 21.08 228.982 21.08ZM228.982 22.28C230.47 22.28 231.43 23.448 231.43 25.112C231.43 26.76 230.47 27.88 228.982 27.88C227.526 27.88 226.55 26.76 226.55 25.112C226.55 23.448 227.526 22.28 228.982 22.28ZM238.811 21.08C237.531 21.08 236.635 21.672 236.139 22.472L236.107 21.16H234.731V32.2H236.139V27.8C236.603 28.552 237.435 29.08 238.715 29.08C240.907 29.08 242.378 27.4 242.378 24.984C242.378 22.6 240.939 21.08 238.811 21.08ZM238.619 27.88C236.907 27.88 236.139 26.424 236.139 25.24V24.888C236.139 23.736 236.939 22.28 238.651 22.28C240.059 22.28 240.939 23.352 240.939 25.016C240.939 26.712 240.027 27.88 238.619 27.88ZM251.078 25.096C251.078 22.568 249.702 21.08 247.51 21.08C245.318 21.08 243.766 22.744 243.766 25.096C243.766 27.4 245.094 29.08 247.542 29.08C249.638 29.08 250.726 27.944 251.03 26.52H249.606C249.462 27.16 248.934 27.88 247.558 27.88C246.182 27.88 245.334 26.936 245.222 25.448H251.078V25.096ZM247.526 22.28C248.71 22.28 249.478 23 249.654 24.408H245.254C245.478 23.096 246.326 22.28 247.526 22.28ZM256.838 21.08C255.654 21.08 254.822 21.608 254.326 22.328L254.262 21.16H252.934V29H254.342V24.44C254.342 23.112 255.19 22.28 256.454 22.28C257.622 22.28 258.246 23.016 258.246 24.344V29H259.67V24.056C259.67 22.136 258.566 21.08 256.838 21.08ZM272.726 27.72C272.566 27.784 272.47 27.8 272.326 27.8C272.07 27.8 271.878 27.608 271.878 27.272V24.072C271.878 22.184 270.694 21.08 268.63 21.08C266.71 21.08 265.382 22.056 265.254 23.752H266.63C266.726 22.808 267.414 22.28 268.534 22.28C269.798 22.28 270.47 22.952 270.47 24.04V24.552H268.822C266.646 24.552 265.078 25.256 265.078 26.952C265.078 28.2 265.958 29.08 267.734 29.08C269.478 29.08 270.198 28.248 270.486 27.8C270.582 28.568 271.126 29.08 271.942 29.08C272.278 29.08 272.566 29.032 272.838 28.952L272.726 27.72ZM268.022 27.944C266.966 27.944 266.518 27.544 266.518 26.888C266.518 26.024 267.27 25.576 268.742 25.576H270.47V26.12C270.47 26.84 269.606 27.944 268.022 27.944ZM278.647 27.656C278.311 27.8 277.975 27.848 277.623 27.848C276.343 27.848 275.975 27.208 275.975 26.424V22.344H278.519V21.16H275.975V18.824H274.647V21.16H273.383V22.376H274.567V26.424C274.567 28.056 275.655 29.08 277.479 29.08C277.975 29.08 278.455 29 278.711 28.888L278.647 27.656ZM286.896 27.752V18.024H285.856C285.36 18.936 284.576 19.32 283.376 19.32V20.536C284.4 20.536 284.944 20.424 285.488 20.088V27.752H283.376V29H288.64V27.752H286.896ZM293.338 17.928C291.21 17.928 289.674 19.352 289.674 21.448C289.674 23.56 291.242 24.92 293.29 24.92C294.442 24.92 295.45 24.312 296.026 23.432V23.496C296.026 26.392 295.002 27.832 293.258 27.832C292.186 27.832 291.274 27.288 291.258 26.056H289.866C289.85 27.832 291.289 29.08 293.306 29.08C295.834 29.08 297.37 27.16 297.37 23.48C297.37 19.608 295.85 17.928 293.338 17.928ZM293.29 23.672C291.978 23.672 291.098 22.84 291.098 21.464C291.098 20.024 292.074 19.176 293.338 19.176C294.41 19.176 295.146 19.592 295.562 20.536C296.314 22.632 294.73 23.672 293.29 23.672ZM300.203 21.64C299.611 21.64 299.211 22.04 299.211 22.616C299.211 23.192 299.611 23.576 300.203 23.576C300.795 23.576 301.195 23.192 301.195 22.616C301.195 22.04 300.795 21.64 300.203 21.64ZM300.235 27.144C299.643 27.144 299.243 27.544 299.243 28.12C299.243 28.696 299.643 29.08 300.235 29.08C300.827 29.08 301.227 28.696 301.227 28.12C301.227 27.544 300.827 27.144 300.235 27.144ZM307.21 29.08C309.786 29.08 311.322 27.144 311.322 23.512C311.322 19.88 309.786 17.896 307.21 17.896C304.634 17.896 303.082 19.88 303.082 23.512C303.082 27.144 304.634 29.08 307.21 29.08ZM307.21 27.832C305.482 27.832 304.506 26.376 304.506 23.512C304.506 20.664 305.482 19.144 307.21 19.144C308.938 19.144 309.898 20.664 309.898 23.512C309.898 26.376 308.938 27.832 307.21 27.832ZM317.085 29.08C319.661 29.08 321.197 27.144 321.197 23.512C321.197 19.88 319.661 17.896 317.085 17.896C314.509 17.896 312.957 19.88 312.957 23.512C312.957 27.144 314.509 29.08 317.085 29.08ZM317.085 27.832C315.357 27.832 314.381 26.376 314.381 23.512C314.381 20.664 315.357 19.144 317.085 19.144C318.813 19.144 319.773 20.664 319.773 23.512C319.773 26.376 318.813 27.832 317.085 27.832ZM325.776 17.56C323.792 17.56 322.464 18.76 322.464 20.744L323.856 20.728C323.872 19.416 324.624 18.808 325.696 18.808C326.672 18.808 327.392 19.304 327.392 20.328C327.392 22.088 324.704 22.872 324.704 24.968V25.736H326V25.016C326 23.304 328.816 22.52 328.816 20.328C328.816 18.728 327.744 17.56 325.776 17.56ZM325.344 27.304C324.784 27.304 324.352 27.688 324.352 28.28C324.352 28.856 324.736 29.24 325.328 29.24C325.936 29.24 326.336 28.84 326.336 28.28C326.336 27.72 325.92 27.304 325.344 27.304Z" fill="white"/>
<g filter="url(#filter0_d)">
<rect x="339" y="9" width="30" height="29.5551" rx="14.7775" fill="white"/>
<mask id="mask0" mask-type="alpha" maskUnits="userSpaceOnUse" x="345" y="15" width="18" height="18">
<path fill-rule="evenodd" clip-rule="evenodd" d="M362.125 22.1888H354.332V25.4103H358.818C358.4 27.4569 356.651 28.6318 354.332 28.6318C351.594 28.6318 349.389 26.4336 349.389 23.7048C349.389 20.9759 351.594 18.7777 354.332 18.7777C355.51 18.7777 356.575 19.1946 357.411 19.8768L359.844 17.4512C358.362 16.1626 356.461 15.3667 354.332 15.3667C349.694 15.3667 345.968 19.0809 345.968 23.7048C345.968 28.3286 349.694 32.0428 354.332 32.0428C358.514 32.0428 362.316 29.0108 362.316 23.7048C362.316 23.2121 362.24 22.6815 362.125 22.1888Z" fill="white"/>
</mask>
<g mask="url(#mask0)">
<path d="M345.208 28.6314V18.7773L351.671 23.7044L345.208 28.6314Z" fill="#FBBC05"/>
</g>
<mask id="mask1" mask-type="alpha" maskUnits="userSpaceOnUse" x="345" y="15" width="18" height="18">
<path fill-rule="evenodd" clip-rule="evenodd" d="M362.125 22.1888H354.332V25.4103H358.818C358.4 27.4569 356.651 28.6318 354.332 28.6318C351.594 28.6318 349.389 26.4336 349.389 23.7048C349.389 20.9759 351.594 18.7777 354.332 18.7777C355.51 18.7777 356.575 19.1946 357.411 19.8768L359.844 17.4512C358.362 16.1626 356.461 15.3667 354.332 15.3667C349.694 15.3667 345.968 19.0809 345.968 23.7048C345.968 28.3286 349.694 32.0428 354.332 32.0428C358.514 32.0428 362.316 29.0108 362.316 23.7048C362.316 23.2121 362.24 22.6815 362.125 22.1888Z" fill="white"/>
</mask>
<g mask="url(#mask1)">
<path d="M345.208 18.777L351.671 23.704L354.332 21.3921L363.457 19.914V14.6079H345.208V18.777Z" fill="#EA4335"/>
</g>
<mask id="mask2" mask-type="alpha" maskUnits="userSpaceOnUse" x="345" y="15" width="18" height="18">
<path fill-rule="evenodd" clip-rule="evenodd" d="M362.125 22.1888H354.332V25.4103H358.818C358.4 27.4569 356.651 28.6318 354.332 28.6318C351.594 28.6318 349.389 26.4336 349.389 23.7048C349.389 20.9759 351.594 18.7777 354.332 18.7777C355.51 18.7777 356.575 19.1946 357.411 19.8768L359.844 17.4512C358.362 16.1626 356.461 15.3667 354.332 15.3667C349.694 15.3667 345.968 19.0809 345.968 23.7048C345.968 28.3286 349.694 32.0428 354.332 32.0428C358.514 32.0428 362.316 29.0108 362.316 23.7048C362.316 23.2121 362.24 22.6815 362.125 22.1888Z" fill="white"/>
</mask>
<g mask="url(#mask2)">
<path d="M345.208 28.6311L356.613 19.914L359.617 20.293L363.457 14.6079V32.8001H345.208V28.6311Z" fill="#34A853"/>
</g>
<mask id="mask3" mask-type="alpha" maskUnits="userSpaceOnUse" x="345" y="15" width="18" height="18">
<path fill-rule="evenodd" clip-rule="evenodd" d="M362.125 22.1888H354.332V25.4103H358.818C358.4 27.4569 356.651 28.6318 354.332 28.6318C351.594 28.6318 349.389 26.4336 349.389 23.7048C349.389 20.9759 351.594 18.7777 354.332 18.7777C355.51 18.7777 356.575 19.1946 357.411 19.8768L359.844 17.4512C358.362 16.1626 356.461 15.3667 354.332 15.3667C349.694 15.3667 345.968 19.0809 345.968 23.7048C345.968 28.3286 349.694 32.0428 354.332 32.0428C358.514 32.0428 362.316 29.0108 362.316 23.7048C362.316 23.2121 362.24 22.6815 362.125 22.1888Z" fill="white"/>
</mask>
<g mask="url(#mask3)">
<path d="M363.457 32.8005L351.671 23.7044L350.15 22.5674L363.457 18.7773V32.8005Z" fill="#4285F4"/>
</g>
</g>
<defs>
<filter id="filter0_d" x="335" y="9" width="38" height="37.5551" filterUnits="userSpaceOnUse" color-interpolation-filters="sRGB">
<feFlood flood-opacity="0" result="BackgroundImageFix"/>
<feColorMatrix in="SourceAlpha" type="matrix" values="0 0 0 0 0 0 0 0 0 0 0 0 0 0 0 0 0 0 127 0"/>
<feOffset dy="4"/>
<feGaussianBlur stdDeviation="2"/>
<feColorMatrix type="matrix" values="0 0 0 0 0 0 0 0 0 0 0 0 0 0 0 0 0 0 0.05 0"/>
<feBlend mode="normal" in2="BackgroundImageFix" result="effect1_dropShadow"/>
<feBlend mode="normal" in="SourceGraphic" in2="effect1_dropShadow" result="shape"/>
</filter>
</defs>
</svg>
