<svg width="146" height="36" viewBox="0 0 146 36" fill="none" xmlns="http://www.w3.org/2000/svg">
<path fill-rule="evenodd" clip-rule="evenodd" d="M1.01419 17.547C1.01419 8.08466 8.74856 0.40918 18.2849 0.40918C27.821 0.40918 35.5556 8.08466 35.5556 17.547C35.5556 27.0096 27.821 34.6846 18.2849 34.6846C15.3645 34.6868 12.4914 33.9522 9.93566 32.5499L0.373779 35.591L3.48984 26.3995C1.91916 23.8158 1.01419 20.783 1.01419 17.547ZM10.2942 29.5764C12.5895 31.075 15.3368 31.9559 18.2807 31.9567C26.2866 31.9544 32.7981 25.4913 32.7981 17.5468C32.7981 9.60067 26.2843 3.1371 18.2765 3.1371C10.2687 3.1371 3.7549 9.60067 3.7549 17.5468C3.7549 20.6981 4.77913 23.6207 6.52063 25.9928L4.7107 31.3466L10.2942 29.5764ZM14.1396 10.3072C13.8409 9.59363 13.6145 9.56661 13.162 9.54825C12.9901 9.53721 12.818 9.53126 12.6458 9.53041C12.0571 9.53041 11.4416 9.70197 11.0703 10.0813L11.0307 10.1215C10.5557 10.6031 9.49512 11.6785 9.49512 13.8207C9.49512 15.9602 11.0136 18.0314 11.3012 18.4238L11.3238 18.4547C11.3405 18.4766 11.3718 18.5219 11.4173 18.5878C11.989 19.4145 14.7994 23.4789 18.9922 25.2111C22.5321 26.6744 23.5825 26.5387 24.3881 26.3672C25.565 26.1143 27.0408 25.2468 27.4121 24.1993C27.7834 23.1513 27.7834 22.2571 27.6745 22.0674C27.5881 21.9165 27.3811 21.8172 27.0722 21.669C26.9929 21.631 26.9069 21.5897 26.8145 21.5436C26.3619 21.3177 24.1617 20.2338 23.7452 20.0892C23.3377 19.9358 22.9486 19.9901 22.6409 20.4237C22.5781 20.5112 22.5154 20.5989 22.4532 20.686C22.085 21.2014 21.7311 21.6968 21.4367 22.0134C21.1651 22.3025 20.7213 22.3387 20.3503 22.1849C20.3095 22.168 20.2628 22.1491 20.2103 22.1279C19.6219 21.8906 18.3174 21.3643 16.7378 19.9628C15.4069 18.7797 14.5016 17.3075 14.2392 16.865C13.9811 16.4214 14.2041 16.1604 14.4092 15.9203L14.4201 15.9075C14.5496 15.7472 14.6761 15.6137 14.803 15.4797C14.898 15.3794 14.9932 15.2789 15.0901 15.1667L15.136 15.1137C15.3342 14.8852 15.4533 14.7479 15.588 14.4621C15.7421 14.1641 15.6333 13.8569 15.5247 13.6311C15.4443 13.4639 14.9275 12.2131 14.5138 11.2118L14.5135 11.2109C14.3683 10.8597 14.2359 10.5393 14.1396 10.3072ZM110.651 9.53041L104.629 26.1596H108.151L109.396 22.4566H115.35L116.549 26.1596H120.183L114.228 9.53041H110.651ZM112.389 13.632L110.315 19.7378H114.442L112.434 13.632H112.389ZM131.128 15.7534C130.702 15.1676 130.152 14.6867 129.502 14.3355C128.852 13.9839 128.067 13.7963 127.158 13.7963C126.44 13.7963 125.79 13.9488 125.196 14.2419C124.602 14.5349 124.108 15.0151 123.727 15.6598H123.682V14.1244H120.677V30.3789H123.839V24.6712H123.884C124.257 25.2447 124.767 25.7055 125.364 26.0074C125.97 26.312 126.62 26.4645 127.337 26.4645C128.19 26.4645 128.918 26.2889 129.558 25.9489C130.175 25.6184 130.715 25.1503 131.139 24.5776C131.565 24.0035 131.879 23.3469 132.093 22.5971C132.3 21.8386 132.405 21.0538 132.407 20.265C132.407 19.4097 132.305 18.5895 132.093 17.804C131.879 17.0191 131.565 16.3391 131.128 15.7418V15.7534ZM144.696 17.8159C144.483 17.0307 144.169 16.351 143.743 15.7534C143.305 15.1676 142.767 14.6867 142.117 14.3355C141.466 13.9839 140.682 13.7963 139.774 13.7963C139.056 13.7963 138.405 13.9488 137.811 14.2419C137.216 14.5349 136.723 15.0151 136.342 15.6598H136.297V14.1244H133.292V30.3789H136.454V24.6712H136.499C136.871 25.2447 137.382 25.7055 137.979 26.0074C138.585 26.312 139.235 26.4645 139.953 26.4645C140.794 26.4645 141.534 26.2889 142.173 25.9489C142.79 25.6186 143.33 25.1505 143.754 24.5776C144.18 24.0035 144.494 23.3469 144.696 22.5971C144.91 21.847 145.01 21.074 145.01 20.265C145.01 19.4097 144.91 18.5895 144.696 17.804V17.8159ZM141.713 21.601C141.624 22.07 141.467 22.4685 141.253 22.8201C141.041 23.1714 140.76 23.4532 140.402 23.6754C140.054 23.8868 139.617 24.0035 139.101 24.0035C138.596 24.0035 138.159 23.8983 137.811 23.6754C137.464 23.4633 137.169 23.1707 136.948 22.8201C136.734 22.4689 136.577 22.07 136.477 21.601C136.378 21.1355 136.329 20.6599 136.331 20.1831C136.331 19.6909 136.376 19.1985 136.466 18.742C136.555 18.273 136.712 17.8629 136.926 17.5113C137.138 17.1475 137.419 16.8667 137.777 16.6325C138.125 16.4096 138.562 16.2925 139.078 16.2925C139.583 16.2925 140.009 16.4096 140.356 16.6325C140.705 16.8577 141 17.162 141.22 17.5229C141.444 17.8861 141.601 18.3078 141.702 18.7652C141.803 19.2338 141.848 19.7025 141.848 20.1831C141.848 20.6637 141.803 21.1323 141.713 21.601ZM128.638 22.8201C128.851 22.4685 129.008 22.07 129.098 21.601C129.187 21.1323 129.232 20.6637 129.232 20.1831C129.232 19.7025 129.187 19.2338 129.087 18.7652C128.985 18.3078 128.828 17.8861 128.604 17.5229C128.384 17.162 128.089 16.8576 127.741 16.6325C127.393 16.4096 126.967 16.2925 126.462 16.2925C125.947 16.2925 125.509 16.4096 125.162 16.6325C124.803 16.8667 124.523 17.1475 124.31 17.5113C124.096 17.8629 123.94 18.273 123.85 18.742C123.76 19.1985 123.716 19.6909 123.716 20.1831C123.713 20.6599 123.762 21.1355 123.861 21.601C123.962 22.07 124.119 22.4689 124.332 22.8201C124.553 23.1705 124.849 23.4632 125.195 23.6754C125.555 23.8983 125.98 24.0035 126.485 24.0035C127.001 24.0035 127.438 23.8868 127.786 23.6754C128.145 23.4532 128.425 23.1717 128.638 22.8201ZM103.542 19.9254C103.89 20.1831 104.159 20.5111 104.372 20.8862L104.361 20.8617C104.575 21.2371 104.675 21.7058 104.675 22.2681C104.675 23.0652 104.518 23.7214 104.216 24.2601C103.913 24.7877 103.52 25.2213 103.027 25.5494C102.534 25.8775 101.973 26.112 101.345 26.2406C100.717 26.37 100.067 26.4404 99.416 26.4404C98.7432 26.4404 98.0932 26.37 97.4539 26.2291C96.8146 26.0885 96.2428 25.8543 95.7494 25.5262C95.256 25.1981 94.8411 24.7764 94.5272 24.237C94.2021 23.6979 94.0335 23.0298 93.9999 22.2214H97.0051C97.0051 22.573 97.0726 22.878 97.2184 23.1356C97.364 23.3933 97.5435 23.6043 97.7678 23.7683C97.9919 23.932 98.2498 24.0498 98.5413 24.1318C98.8217 24.2142 99.1246 24.2489 99.4385 24.2489C99.6762 24.2495 99.9131 24.222 100.145 24.1669C100.391 24.1087 100.616 24.0263 100.818 23.9092C101.018 23.7955 101.191 23.6351 101.322 23.4406C101.457 23.2414 101.524 22.9954 101.524 22.7023C101.524 22.2102 101.21 21.8351 100.582 21.589C99.9433 21.343 99.0686 21.0969 97.9359 20.8508C97.4761 20.7456 97.0276 20.6163 96.5902 20.4642C96.1529 20.312 95.7715 20.1126 95.4237 19.8781C95.0873 19.632 94.8072 19.3277 94.6053 18.9639C94.392 18.6008 94.2914 18.1556 94.2914 17.628C94.2914 16.8551 94.437 16.2101 94.7287 15.718C95.0088 15.2262 95.3905 14.8392 95.8725 14.5462C96.3434 14.2531 96.8814 14.0537 97.4757 13.9366C98.0701 13.8199 98.6758 13.761 99.3034 13.761C99.9313 13.761 100.537 13.8195 101.12 13.9485C101.703 14.0775 102.23 14.2882 102.69 14.5812C103.15 14.8743 103.531 15.2606 103.834 15.7531C104.137 16.2455 104.327 16.8548 104.383 17.6049H101.378C101.344 16.9722 101.109 16.5386 100.694 16.316C100.279 16.0934 99.7854 15.9763 99.2246 15.9763C99.0298 15.9773 98.8352 15.989 98.6416 16.0114C98.4283 16.0345 98.2378 16.0815 98.0694 16.1635C97.9014 16.2455 97.7555 16.351 97.6321 16.5032C97.509 16.6557 97.453 16.8551 97.453 17.1012C97.453 17.4058 97.5536 17.64 97.7669 17.8275C97.9688 18.0154 98.2381 18.1675 98.5742 18.2846C98.8992 18.4017 99.2917 18.5075 99.718 18.6011C100.06 18.6761 100.409 18.7588 100.765 18.8432L101.03 18.906C101.484 19.0193 101.933 19.1521 102.376 19.3043C102.813 19.468 103.206 19.6678 103.542 19.9254ZM91.2854 10.515H88.1232V14.1244H86.2054V16.3391H88.1232V23.4412C88.1232 24.0507 88.2239 24.5313 88.4147 24.906C88.6055 25.2814 88.8745 25.5622 89.2109 25.7736C89.5473 25.9727 89.929 26.1133 90.3661 26.1837C90.8264 26.2553 91.2913 26.2905 91.7567 26.2889C92.0498 26.2889 92.3429 26.2788 92.6544 26.268L92.7209 26.2657C93.0179 26.2552 93.3138 26.2238 93.6068 26.1718V23.6052C93.4519 23.6417 93.2946 23.6652 93.1362 23.6753C92.9645 23.6894 92.7925 23.6972 92.6203 23.6988C92.082 23.6988 91.7342 23.6052 91.5551 23.4174C91.3756 23.2302 91.2857 22.8548 91.2857 22.3044V16.3391H93.6068V14.1244H91.2857V10.515H91.2854ZM82.1571 22.2575C82.191 21.941 82.2132 21.6946 82.2132 21.5074L82.2249 21.4846V20.2539C82.09 20.3829 81.922 20.4768 81.7201 20.5469C81.5182 20.617 81.3052 20.6759 81.0697 20.7226C80.8343 20.7692 80.5985 20.8046 80.3406 20.8396C80.0856 20.8722 79.8314 20.9112 79.5782 20.9567C79.3317 21.0037 79.1073 21.0626 78.8718 21.1446C78.6364 21.2266 78.4345 21.3318 78.2664 21.4608C78.0977 21.601 77.9522 21.7651 77.8512 21.9648C77.7506 22.1755 77.6942 22.4216 77.6942 22.7381C77.6942 23.0431 77.7506 23.2891 77.8512 23.4882C77.9635 23.6993 78.098 23.8514 78.2775 23.9688C78.4569 24.0856 78.6699 24.1676 78.9054 24.2149C79.1519 24.2615 79.3988 24.2853 79.6456 24.2853C80.2621 24.2853 80.7558 24.1795 81.0919 23.9572C81.4394 23.7343 81.6862 23.4767 81.8543 23.1717C82.0161 22.8929 82.1194 22.5813 82.1571 22.2575ZM85.3751 23.4878V17.2179C85.3751 16.4916 85.2181 15.9055 84.9045 15.4603C84.5906 15.0148 84.1864 14.6751 83.7044 14.4291C83.211 14.183 82.6727 14.0189 82.0784 13.9253C81.495 13.842 80.907 13.7989 80.3182 13.7963C79.6786 13.7963 79.0396 13.8668 78.4117 13.9958C77.7841 14.1248 77.212 14.347 76.7072 14.6639C76.2103 14.9729 75.7852 15.3932 75.4625 15.8946C75.1375 16.4102 74.9466 17.0545 74.902 17.8281H78.0642C78.1202 17.1723 78.3332 16.7152 78.6918 16.4337C79.051 16.1522 79.533 16.012 80.1612 16.012C80.4416 16.012 80.7103 16.0352 80.9574 16.0705C81.1871 16.1021 81.4083 16.1819 81.6078 16.305C81.7986 16.4221 81.9442 16.5862 82.0565 16.7972C82.1686 17.0082 82.2246 17.289 82.2246 17.6525C82.2357 17.9922 82.1461 18.2505 81.9328 18.4377C81.7198 18.6133 81.4394 18.7542 81.0809 18.8478C80.7223 18.9414 80.3185 19.0119 79.8586 19.0588C79.3988 19.1058 78.9279 19.1643 78.457 19.2464C77.9861 19.3284 77.5148 19.4336 77.0439 19.5625C76.573 19.6915 76.1578 19.8906 75.7989 20.1605C75.4289 20.4298 75.1375 20.7813 74.902 21.2149C74.6666 21.6605 74.5542 22.2231 74.5542 22.9027C74.5542 23.5239 74.6548 24.063 74.8571 24.5082C75.0464 24.9422 75.3306 25.3237 75.6869 25.6218C76.0572 25.9227 76.4799 26.1456 76.9316 26.278C77.4025 26.4186 77.9183 26.4887 78.4677 26.4887C79.1855 26.4887 79.8808 26.3835 80.5647 26.1606C81.2411 25.9448 81.8544 25.5539 82.3477 25.0241C82.3585 25.2191 82.3912 25.4138 82.4241 25.6094L82.4262 25.6218C82.4597 25.809 82.5157 26.0084 82.5721 26.196H85.7792C85.6333 25.9499 85.5213 25.5745 85.4653 25.0823C85.4059 24.5652 85.3759 24.0448 85.3754 23.5239V23.4878H85.3751ZM71.0674 14.1711C71.6054 14.4056 72.0317 14.7456 72.3456 15.1673C72.6596 15.5893 72.8839 16.1166 73.0074 16.7261C73.1308 17.3357 73.1982 18.015 73.1982 18.7652V26.1715H70.036V19.3741C70.036 18.3782 69.879 17.6396 69.5872 17.1475C69.2958 16.6557 68.7574 16.4096 68.0061 16.4096C67.1428 16.4096 66.5149 16.6672 66.1335 17.2064C65.7411 17.7455 65.5503 18.6243 65.5503 19.855V26.1715H62.3881V9.54201H65.5503V15.8116H65.6177C66.0212 15.1203 66.526 14.6047 67.1539 14.2882C67.7817 13.9717 68.3872 13.8076 68.9815 13.8076C69.8341 13.8076 70.5291 13.925 71.0674 14.1711ZM55.6258 21.0032H55.5809L52.8674 9.54192H49.5929L46.8342 20.8626H46.7892L44.266 9.54192H40.7677L44.9838 26.1714H48.5273L51.1737 14.8504H51.2186L53.9099 26.1714H57.3861L59.2922 18.7882L61.6695 9.54192H58.238L55.6258 21.0032Z" fill="#C3CDDD"/>
</svg>
